<?xml version="1.0" encoding="utf-8"?>
<!-- Generator: Adobe Illustrator 19.2.1, SVG Export Plug-In . SVG Version: 6.00 Build 0)  -->
<svg version="1.1" id="Layer_1" xmlns="http://www.w3.org/2000/svg" xmlns:xlink="http://www.w3.org/1999/xlink" x="0px" y="0px"
	 viewBox="0 0 320 68" style="enable-background:new 0 0 320 68;" xml:space="preserve">
<style type="text/css">
	.st0{fill:#008774;}
	.st1{fill:#00AE9E;}
	.st2{fill:#000005;}
</style>
<path class="st0" d="M48.8,51.7c0-13.5-10.9-24.4-24.4-24.4S0,38.2,0,51.7c0,2.2,0.3,4.4,0.9,6.5l0,0c0.2,0.8,0.5,1.6,0.8,2.3
	c0.2,0.4,0.5,0.6,0.9,0.6h6.6c0.6,0,1-0.4,1-1c0-0.2,0-0.3-0.1-0.5c-0.3-0.5-0.5-1-0.7-1.5l0,0c-3.6-8.3,0.3-17.9,8.5-21.5
	c8.3-3.6,17.9,0.3,21.5,8.5c0.9,2,1.3,4.2,1.3,6.5c0,2.2-0.5,4.4-1.3,6.5l0,0c-0.2,0.5-0.5,1-0.8,1.5c-0.3,0.5-0.1,1,0.4,1.3
	c0.1,0.1,0.3,0.1,0.5,0.1h6.8c0.4,0,0.7-0.2,0.9-0.6c0.3-0.8,0.6-1.6,0.8-2.3l0,0C48.5,56.1,48.8,53.9,48.8,51.7z"/>
<path class="st1" d="M52.2,19.3c-17.1,0-31,13.8-31,30.9c0,2.7,0.3,5.3,1,7.9l0,0c0.2,0.8,0.4,1.6,0.7,2.3c0.1,0.4,0.5,0.6,0.9,0.6
	h6.6c0.5,0,1-0.4,1-1c0-0.1,0-0.3-0.1-0.4c-0.2-0.5-0.5-1.1-0.7-1.6l0,0c-4.3-11.9,1.8-25,13.7-29.4s25,1.8,29.4,13.7
	c1.8,5.1,1.8,10.6,0,15.7l0,0c-0.2,0.6-0.4,1.1-0.7,1.7c-0.2,0.5,0,1,0.4,1.2c0.1,0.1,0.3,0.1,0.4,0.1h6.7c0.4,0,0.7-0.2,0.9-0.6
	c0.3-0.8,0.5-1.6,0.7-2.4l0,0c4.4-16.5-5.5-33.5-22-37.8C57.6,19.6,54.9,19.3,52.2,19.3z"/>
<path class="st0" d="M69.4,27.4C69.4,12.3,57.1,0,41.9,0S14.5,12.3,14.5,27.4c0,0.8,0,1.7,0.1,2.5h8.1C21.6,19.3,29.3,9.8,40,8.7
	s20.1,6.7,21.2,17.3c0,0.5,0.1,0.9,0.1,1.4c0,0.4,0,0.7,0,1.1l0,0c-0.2,3.8-1.6,7.5-3.9,10.6c-0.4,0.5-0.3,1.1,0.2,1.5
	c0.2,0.1,0.4,0.2,0.6,0.2h7c0.4,0,0.7-0.2,0.9-0.6c1.9-3.6,3-7.6,3.1-11.7l0,0C69.3,28.1,69.4,27.8,69.4,27.4z"/>
<path class="st2" d="M98.6,29.6V7.5h8.9c4.4,0,6.9,3.1,6.9,6.7s-2.5,6.7-6.9,6.7h-6.1v8.8L98.6,29.6L98.6,29.6z M111.6,14.1
	c0-2.5-1.8-4.2-4.4-4.2h-5.8v8.4h5.8C109.8,18.4,111.6,16.6,111.6,14.1z"/>
<path class="st2" d="M116.9,9.6c0-0.9,0.8-1.7,1.7-1.7c0.9,0,1.7,0.8,1.7,1.7c0,0.9-0.8,1.7-1.7,1.7
	C117.7,11.3,116.9,10.5,116.9,9.6z M117.4,29.6v-16h2.5v16L117.4,29.6L117.4,29.6z"/>
<path class="st2" d="M128.9,29.6l-6.7-16h2.7l5.3,13.1l5.3-13.1h2.7l-6.7,16L128.9,29.6L128.9,29.6z"/>
<path class="st2" d="M139.1,21.6c0-4.6,3.1-8.4,7.9-8.4s7.9,3.8,7.9,8.4S151.9,30,147,30S139.1,26.2,139.1,21.6z M152.3,21.6
	c0-3.3-1.9-6.2-5.3-6.2c-3.4,0-5.3,2.9-5.3,6.2s1.9,6.2,5.3,6.2C150.5,27.8,152.3,24.9,152.3,21.6z"/>
<path class="st2" d="M158.9,26.3V15.8h-2.7v-2.2h2.7V9.2h2.5v4.4h3.3v2.2h-3.3v10c0,1.2,0.5,2.1,1.6,2.1c0.6,0,1.2-0.2,1.7-0.7
	l0.7,1.9c-0.8,0.7-1.9,1.1-3,1C160,30,158.9,28.6,158.9,26.3z"/>
<path class="st2" d="M177.8,29.6v-1.8c-1.4,1.5-3.3,2.3-5.3,2.2c-2.7,0-5.6-1.8-5.6-5.3c0-3.6,2.9-5.3,5.6-5.3
	c2-0.1,3.9,0.7,5.3,2.2v-2.9c0-2.2-1.7-3.4-4.1-3.4c-1.9,0-3.7,0.8-4.9,2.2l-1.2-1.7c1.7-1.8,4-2.7,6.5-2.6c3.4,0,6.2,1.5,6.2,5.4
	v11H177.8z M177.8,26.2v-3c-1.1-1.3-2.7-2.1-4.4-2c-2.3,0-4,1.5-4,3.5s1.6,3.5,4,3.5C175.1,28.3,176.8,27.5,177.8,26.2L177.8,26.2z"
	/>
<path class="st2" d="M184.8,29.6V7.5h2.5v22.1H184.8z"/>
<path class="st2" d="M97.2,50.1c0-6.8,5.1-11.4,11.8-11.4c3.9-0.1,7.5,2,9.3,5.4l-4.1,2c-1-1.9-3-3.2-5.2-3.2c-4,0-6.9,3.1-6.9,7.3
	s2.9,7.3,6.9,7.3c2.2,0,4.2-1.3,5.2-3.2l4.1,2c-1.6,2.8-4.4,5.4-9.3,5.4C102.3,61.5,97.2,56.9,97.2,50.1z"/>
<path class="st2" d="M120.3,61.1V39h4.2v22.1L120.3,61.1L120.3,61.1z"/>
<path class="st2" d="M127.1,53.1c0-4.5,3.2-8.4,8.5-8.4c5.3,0,8.5,3.9,8.5,8.4s-3.2,8.4-8.5,8.4S127.1,57.7,127.1,53.1z M139.6,53.1
	c0-2.5-1.5-4.6-4.1-4.6c-2.6,0-4.1,2.2-4.1,4.6s1.5,4.7,4.1,4.7S139.6,55.6,139.6,53.1z"/>
<path class="st2" d="M157.4,61.1v-2c-1.4,1.6-3.5,2.5-5.6,2.4c-3.5,0-5.2-1.9-5.2-5V45.1h4.2v9.7c0,2.2,1.2,2.9,2.9,2.9
	c1.4,0,2.8-0.7,3.7-1.8V45.1h4.2v16L157.4,61.1L157.4,61.1z"/>
<path class="st2" d="M176.4,61.1v-2.1c-1.2,1.5-3,2.5-4.9,2.5c-4.1,0-7.1-3.1-7.1-8.4c0-5.2,3-8.4,7.1-8.4c1.9,0,3.8,0.9,4.9,2.5V39
	h4.2v22.1L176.4,61.1L176.4,61.1z M176.4,56v-5.7c-0.9-1.1-2.2-1.8-3.7-1.8c-2.4,0-4.1,1.9-4.1,4.7c0,2.8,1.7,4.6,4.1,4.6
	C174.2,57.8,175.5,57.1,176.4,56L176.4,56z"/>
<path class="st2" d="M193.1,61.1V39h15.7v4.1h-11v4.7h10.7V52h-10.7v9.2L193.1,61.1L193.1,61.1z"/>
<path class="st2" d="M210.4,53.1c0-4.5,3.2-8.4,8.5-8.4c5.3,0,8.5,3.9,8.5,8.4s-3.2,8.4-8.5,8.4S210.4,57.7,210.4,53.1z M223,53.1
	c0-2.5-1.5-4.6-4.1-4.6c-2.6,0-4.1,2.2-4.1,4.6s1.5,4.7,4.1,4.7C221.5,57.8,223,55.6,223,53.1z"/>
<path class="st2" d="M240.7,61.1v-2c-1.4,1.6-3.5,2.5-5.6,2.4c-3.5,0-5.2-1.9-5.2-5V45.1h4.2v9.7c0,2.2,1.2,2.9,2.9,2.9
	c1.4,0,2.8-0.7,3.7-1.8V45.1h4.2v16L240.7,61.1L240.7,61.1z"/>
<path class="st2" d="M259.4,61.1v-9.7c0-2.2-1.2-3-2.9-3c-1.4,0-2.8,0.7-3.7,1.9v10.8h-4.2v-16h4.2v2.1c1.4-1.6,3.5-2.5,5.6-2.5
	c3.5,0,5.2,2,5.2,5.1v11.3L259.4,61.1L259.4,61.1z"/>
<path class="st2" d="M278.3,61.1v-2.1c-1.2,1.5-3,2.5-4.9,2.5c-4.1,0-7.1-3.1-7.1-8.4c0-5.2,3-8.4,7.1-8.4c1.9,0,3.8,0.9,4.9,2.5V39
	h4.2v22.1L278.3,61.1L278.3,61.1z M278.3,56v-5.7c-0.9-1.1-2.2-1.8-3.7-1.8c-2.4,0-4.1,1.9-4.1,4.7c0,2.8,1.7,4.6,4.1,4.6
	C276.1,57.8,277.4,57.1,278.3,56L278.3,56z"/>
<path class="st2" d="M286.1,61.1v-16h4.2v2.2c1.2-1.6,3.1-2.5,5.1-2.6v4.1c-0.4-0.1-0.8-0.1-1.2-0.1c-1.4,0-3.3,0.8-4,1.8v10.6
	L286.1,61.1L286.1,61.1z"/>
<path class="st2" d="M298.7,63.6c0.4,0.2,0.9,0.3,1.3,0.3c1.1,0,1.8-0.3,2.2-1.2l0.6-1.4l-6.5-16.2h4.5l4.2,11.2l4.2-11.2h4.5
	l-7.5,18.6c-1.2,3-3.3,3.8-6.1,3.9c-0.7,0-1.4-0.1-2.1-0.2L298.7,63.6z"/>
<path class="st2" d="M317.3,50.2c-1.4,0-2.6-1.2-2.6-2.6c0-1.4,1.2-2.6,2.6-2.6c1.4,0,2.6,1.2,2.6,2.6
	C319.9,49.1,318.7,50.2,317.3,50.2L317.3,50.2z M317.3,45.4c-1.2,0-2.2,1-2.2,2.2c0,1.2,1,2.2,2.2,2.2c1.2,0,2.2-1,2.2-2.2
	C319.5,46.4,318.5,45.4,317.3,45.4C317.3,45.4,317.3,45.4,317.3,45.4z M318,49.1l-0.8-1.2h-0.5v1.2h-0.4v-3h1.2c0.5,0,0.9,0.4,1,0.9
	c0,0,0,0,0,0c0,0.4-0.3,0.8-0.8,0.9l0.8,1.2L318,49.1L318,49.1z M317.5,46.5h-0.8v1.1h0.8c0.3,0,0.5-0.2,0.5-0.5
	S317.8,46.5,317.5,46.5L317.5,46.5z"/>
</svg>
